<svg id="Layer_1" data-name="Layer 1" xmlns="http://www.w3.org/2000/svg" viewBox="0 0 1558.716 503.976">
  <defs>
    <style>
      .cls-1 {
        fill: #dd2321;
      }

      .cls-2, .cls-4, .cls-5, .cls-6 {
        fill: none;
        stroke: #002d4a;
        stroke-miterlimit: 10;
      }

      .cls-2 {
        stroke-width: 1.5px;
      }

      .cls-3 {
        fill: #002d4a;
      }

      .cls-4 {
        stroke-width: 5.655px;
      }

      .cls-5 {
        stroke-width: 1.391px;
      }

      .cls-6 {
        stroke-width: 1.44px;
      }
    </style>
  </defs>
  <title>20d7944b-81f9-4ef2-a3da-0e334b4211b0</title>
  <g>
    <g>
      <path class="cls-1" d="M820.044,347.332c-3.856,4.06-12.354,9.712-26.283,9.712a53.849,53.849,0,0,1-8.5-.717c-3.777-.557-15.029-2.627-21.482-13.135a29.247,29.247,0,0,1-4.013-15.125c0-6.448,1.652-12.9,5.587-17.911a23.336,23.336,0,0,1,4.013-4.06c3.777-3.185,11.41-8.12,23.922-8.12a42.643,42.643,0,0,1,17.233,3.582,28.1,28.1,0,0,1,16.761,26.668C827.283,331.491,826.811,340.247,820.044,347.332Zm-2.755-29.692c-5.98-12.976-21.8-12.9-24.944-12.816-2.36.079-12.354.637-18.807,7.164a19.536,19.536,0,0,0-4.643,7.563,26.22,26.22,0,0,0-1.259,8.2,23.061,23.061,0,0,0,4.013,13.294,19.1,19.1,0,0,0,4.406,4.219c3.227,2.309,8.656,4.856,17.863,4.856A35.818,35.818,0,0,0,803.282,349c7.791-2.07,13.456-7.324,15.345-15.284a29.806,29.806,0,0,0,.708-6.289A22.909,22.909,0,0,0,817.289,317.64Z" transform="translate(0)"/>
      <path class="cls-1" d="M888.9,355.532l-43.516-46.489.157,46.489h-7.554v-56.2h8.1l43.2,46.41-.235-46.41h7.554v56.2Z" transform="translate(0)"/>
      <path class="cls-1" d="M910.234,355.532v-56.2H961.46v6.926H918.1v16.717h42.256v6.687H918.1v18.946h45.4v6.926Z" transform="translate(0)"/>
      <path class="cls-1" d="M1023.711,306.017v49.515h-7.868V306.017H993.18V299.33h53.272v6.687Z" transform="translate(0)"/>
      <path class="cls-1" d="M1116.176,355.532h-8.734l-16.367-46.012-16.446,46.012h-8.971l-18.1-56.2h8.42l14.479,47.365,17.154-47.365h7l17.075,47.126,14.479-47.126h8.341Z" transform="translate(0)"/>
      <path class="cls-1" d="M1141.363,355.532v-56.2h51.228v6.926h-43.358v16.717h42.256v6.687h-42.256v18.946h45.4v6.926Z" transform="translate(0)"/>
      <path class="cls-1" d="M1254.525,355.532l-43.516-46.489.157,46.489h-7.554v-56.2h8.1l43.2,46.41-.235-46.41h7.554v56.2Z" transform="translate(0)"/>
      <path class="cls-1" d="M1300.8,306.017v49.515h-7.868V306.017h-22.663V299.33h53.272v6.687Z" transform="translate(0)"/>
      <path class="cls-1" d="M1360.529,333.8v21.732h-7.79V333.64l-27.7-34.31h10.151l21.482,27.543,21.954-27.543H1388.7Z" transform="translate(0)"/>
      <path class="cls-1" d="M1416.168,326.555a23.27,23.27,0,0,1-7.554,1.274c-12.275,0-17.548-7.244-17.548-14.17,0-5.971,3.935-14.807,16.6-14.807h.865c12.826,0,17.076,8.279,17.076,14.488C1425.611,315.809,1424.982,323.212,1416.168,326.555Zm-7.554-23.006a14.467,14.467,0,0,0-5.193.8,9.324,9.324,0,0,0-6.689,9.075c0,4.379,3.306,9.394,11.489,9.553,8.813.159,11.8-5.333,11.8-9.791C1420.025,308.883,1416.876,303.549,1408.614,303.549Z" transform="translate(0)"/>
    </g>
    <line class="cls-2" x1="621.126" y1="275.557" x2="1558.716" y2="275.557"/>
    <line class="cls-2" x1="752.091" y1="378.064" x2="1427.75" y2="378.064"/>
    <g>
      <path class="cls-3" d="M783.572,435.4v-30.7h27.992v3.783H787.872v9.133h23.091v3.652H787.872v10.351h24.811V435.4Z" transform="translate(0)"/>
      <path class="cls-3" d="M845.4,435.4,821.624,410l.086,25.4h-4.128v-30.7h4.429l23.606,25.354-.129-25.354h4.128v30.7Z" transform="translate(0)"/>
      <path class="cls-3" d="M886.121,435.4v-4.219a15.656,15.656,0,0,1-2.021,1.783,20.046,20.046,0,0,1-11.223,3.131c-8.17,0-12.556-4.262-14.4-6.827a15.653,15.653,0,0,1-2.967-9.307A15.873,15.873,0,0,1,858,411.391,13.248,13.248,0,0,1,859.978,409a19.481,19.481,0,0,1,13.674-5.045,21.784,21.784,0,0,1,10.147,2.392,13.4,13.4,0,0,1,4.085,3.088,9.643,9.643,0,0,1,1.806,2.609l-4.214,1.3a10.977,10.977,0,0,0-1.634-2.044,14.423,14.423,0,0,0-9.89-3.609,18.3,18.3,0,0,0-5.8.956,11.379,11.379,0,0,0-8.041,11.133,13.147,13.147,0,0,0,2.752,8c3.568,4.393,9.374,4.653,10.965,4.653,4.214,0,8.943-1.826,11.223-5.61a9.394,9.394,0,0,0,1.2-3.957H872.877v-3.653h16.985V435.4Z" transform="translate(0)"/>
      <path class="cls-3" d="M896.439,435.4v-30.7h4.386v30.7Z" transform="translate(0)"/>
      <path class="cls-3" d="M935.91,435.4,912.132,410l.086,25.4H908.09v-30.7h4.429l23.606,25.354L936,404.694h4.128v30.7Z" transform="translate(0)"/>
      <path class="cls-3" d="M947.561,435.4v-30.7h27.992v3.783H951.86v9.133h23.091v3.652H951.86v10.351h24.811V435.4Z" transform="translate(0)"/>
      <path class="cls-3" d="M981.614,435.4v-30.7h27.992v3.783H985.914v9.133h23.091v3.652H985.914v10.351h24.811V435.4Z" transform="translate(0)"/>
      <path class="cls-3" d="M1044.906,435.4l-10.277-12.307h-14.662V435.4h-4.343v-30.7h20.683a15.962,15.962,0,0,1,4.815.479,8.328,8.328,0,0,1,6.407,8.523,8.093,8.093,0,0,1-4.9,7.871,13.767,13.767,0,0,1-3.311.826l11.223,13Zm-2.623-24.527c-1.29-2.3-3.311-2.521-5.676-2.521h-16.684V419.48h15.007c2.45,0,5.332-.088,7.009-2.262a5.053,5.053,0,0,0,1.118-3.349A5.844,5.844,0,0,0,1042.283,410.868Z" transform="translate(0)"/>
      <path class="cls-3" d="M1054.15,435.4v-30.7h4.386v30.7Z" transform="translate(0)"/>
      <path class="cls-3" d="M1093.622,435.4,1069.844,410l.086,25.4H1065.8v-30.7h4.429l23.606,25.354-.129-25.354h4.128v30.7Z" transform="translate(0)"/>
      <path class="cls-3" d="M1134.34,435.4v-4.219a15.656,15.656,0,0,1-2.021,1.783,20.046,20.046,0,0,1-11.223,3.131c-8.17,0-12.556-4.262-14.4-6.827a15.653,15.653,0,0,1-2.967-9.307,15.873,15.873,0,0,1,2.493-8.566A13.248,13.248,0,0,1,1108.2,409a19.481,19.481,0,0,1,13.674-5.045,21.784,21.784,0,0,1,10.147,2.392,13.4,13.4,0,0,1,4.085,3.088,9.643,9.643,0,0,1,1.806,2.609l-4.214,1.3a10.977,10.977,0,0,0-1.634-2.044,14.423,14.423,0,0,0-9.89-3.609,18.3,18.3,0,0,0-5.8.956,11.379,11.379,0,0,0-8.041,11.133,13.147,13.147,0,0,0,2.752,8c3.568,4.393,9.374,4.653,10.965,4.653,4.214,0,8.943-1.826,11.223-5.61a9.394,9.394,0,0,0,1.2-3.957H1121.1v-3.653h16.985V435.4Z" transform="translate(0)"/>
      <path class="cls-3" d="M1185.29,435.614a5.382,5.382,0,0,1-1.677-.262c-1.2-.391-2.107-1.087-4.128-2.521-.56.348-1.118.7-1.678,1a19.822,19.822,0,0,1-9.46,2.349c-1.29,0-6.75.043-9.761-4.132a7.6,7.6,0,0,1-1.548-4.7,6.773,6.773,0,0,1,1.075-3.958c1.591-2.479,4.558-3.479,7.095-4.436a7.911,7.911,0,0,1-2.967-6,6.484,6.484,0,0,1,.731-3.175c.9-1.652,3.1-3.783,7.481-3.74a8.9,8.9,0,0,1,4.687,1.175,6.517,6.517,0,0,1,3.1,5.566,7.292,7.292,0,0,1-4,6.349,24.678,24.678,0,0,1-2.451,1.044c1.806,1.826,3.655,3.7,5.633,5.393l2.15,1.87,1.031-1.7a8.993,8.993,0,0,0,1.376-4.957l3.7-.088a22.7,22.7,0,0,1-.43,2.914,16.8,16.8,0,0,1-2.967,6.132c.344.3.73.608,1.074.87a4.973,4.973,0,0,0,4.042,1.087v3.522A7.211,7.211,0,0,1,1185.29,435.614ZM1172,426.176c-1.5-1.479-2.924-3-4.386-4.479-.56.174-1.118.3-1.677.521-3.44,1.174-4.559,2.957-4.559,4.783a5.229,5.229,0,0,0,.817,2.74c.86,1.3,3.01,2.914,6.751,2.914a15.9,15.9,0,0,0,6.363-1.479,7.4,7.4,0,0,0,1.247-.782C1175.013,429,1173.465,427.612,1172,426.176Zm-1.677-17.09a3.686,3.686,0,0,0-3.913,3.609,4.622,4.622,0,0,0,.989,2.739,9.9,9.9,0,0,0,2.063,2.175,4.543,4.543,0,0,0,.817-.218c.773-.261,3.827-1.3,3.827-4.522A3.621,3.621,0,0,0,1170.326,409.086Z" transform="translate(0)"/>
      <path class="cls-3" d="M1233.1,431.742c-4.128,3.522-9.417,3.653-14.491,3.653h-12.125v-30.7h15.093c.859,0,1.677,0,2.536.043a15.193,15.193,0,0,1,7.869,2.436c4.257,2.827,6.235,7.567,6.235,12.655A15.6,15.6,0,0,1,1233.1,431.742Zm-6.837-23a18.866,18.866,0,0,0-4.687-.435h-10.75v23.4h8.857c.817,0,1.591-.044,2.365-.087a12.511,12.511,0,0,0,8.127-2.87c3.439-3.088,3.655-7.61,3.655-9.089C1233.79,414.609,1231.3,410.086,1226.265,408.738Z" transform="translate(0)"/>
      <path class="cls-3" d="M1244.109,435.4v-30.7H1272.1v3.783h-23.692v9.133H1271.5v3.652h-23.091v10.351h24.811V435.4Z" transform="translate(0)"/>
      <path class="cls-3" d="M1305.767,431.265c-2.709,3.826-7.826,4.436-8.944,4.565a33.146,33.146,0,0,1-12.212-.608,19.38,19.38,0,0,1-3.268-1.087,15.372,15.372,0,0,1-3.182-1.87,11.918,11.918,0,0,1-2.838-3.088l4-1.652c.216.261.388.479.646.739a13.081,13.081,0,0,0,4.171,2.652,24.411,24.411,0,0,0,8.6,1.479c.774,0,5.332.131,8.256-2.087a5.257,5.257,0,0,0,2.064-4.132,3.99,3.99,0,0,0-2.58-3.783c-2.236-1-7.482-1.3-9.89-1.521-5.806-.479-8.644-.783-10.879-2.87a6.6,6.6,0,0,1-2.15-5.132,7.66,7.66,0,0,1,4.214-6.958c1.807-1,5.117-2,10.02-2,6.02,0,9.632,1.479,11.824,2.914a11.371,11.371,0,0,1,1.376,1.044,14.191,14.191,0,0,1,1.979,2.218l-3.956,1.608a14.853,14.853,0,0,0-1.85-1.608,15.688,15.688,0,0,0-9.33-2.566,19.809,19.809,0,0,0-6.622,1c-2.623,1-3.354,2.826-3.354,4.131a3.752,3.752,0,0,0,.517,1.914c1.075,1.739,3.225,1.913,4.987,2.131,3.354.435,6.708.608,10.063,1,4.687.565,6.837,1.783,8.3,3.609a7.673,7.673,0,0,1,1.591,4.827A8.6,8.6,0,0,1,1305.767,431.265Z" transform="translate(0)"/>
      <path class="cls-3" d="M1313.031,435.4v-30.7h4.386v30.7Z" transform="translate(0)"/>
      <path class="cls-3" d="M1353.794,435.4v-4.219a15.656,15.656,0,0,1-2.021,1.783,20.046,20.046,0,0,1-11.223,3.131c-8.17,0-12.556-4.262-14.4-6.827a15.653,15.653,0,0,1-2.967-9.307,15.873,15.873,0,0,1,2.493-8.566,13.248,13.248,0,0,1,1.979-2.392,19.483,19.483,0,0,1,13.674-5.045,21.784,21.784,0,0,1,10.147,2.392,13.4,13.4,0,0,1,4.085,3.088,9.643,9.643,0,0,1,1.806,2.609l-4.214,1.3a10.977,10.977,0,0,0-1.634-2.044,14.423,14.423,0,0,0-9.89-3.609,18.3,18.3,0,0,0-5.8.956,11.379,11.379,0,0,0-8.041,11.133,13.147,13.147,0,0,0,2.752,8c3.568,4.393,9.374,4.653,10.965,4.653,4.214,0,8.943-1.826,11.223-5.61a9.394,9.394,0,0,0,1.2-3.957H1340.55v-3.653h16.984V435.4Z" transform="translate(0)"/>
      <path class="cls-3" d="M1391.932,435.4,1368.153,410l.086,25.4h-4.128v-30.7h4.429l23.606,25.354-.129-25.354h4.128v30.7Z" transform="translate(0)"/>
    </g>
    <g>
      <path class="cls-1" d="M252.068,430.381V321.673s-33.3,0-54.04-22.621l15.709-26.392s54.04,40.216,113.735-1.885l16.338,25.763S332.5,314.132,284.744,322.3l-.932,109.01S283.487,432.266,252.068,430.381Z" transform="translate(0)"/>
      <path class="cls-4" d="M251.288,431.723l.78-110.05s-33.3,0-54.04-22.621l15.709-26.392s54.04,40.216,113.735-1.885l16.338,25.763S332.5,314.132,284.635,323.08l-.108,108.6S282.165,432.546,251.288,431.723Z" transform="translate(0)"/>
      <polygon class="cls-3" points="318.491 278.551 309.115 283.665 320.196 311.794 332.129 304.122 318.491 278.551"/>
      <polygon class="cls-1" points="242.8 113.525 120.059 391.227 140.218 401.476 291.656 144.472 242.8 113.525"/>
      <polygon class="cls-4" points="243.146 114.426 118.183 393.622 140.218 401.476 291.656 144.472 243.146 114.426"/>
      <polygon class="cls-3" points="254.563 211.213 224.73 156.661 237.515 133.647 267.349 188.199 254.563 211.213"/>
      <polygon class="cls-3" points="374.748 410.669 364.519 415.784 374.748 445.617 387.534 441.355 374.748 410.669"/>
      <path class="cls-1" d="M290.074,118.484l117.34,258.385-23.25,11.939-142.3-248.14-2.177-6.927s-1.383-6.022-1.323-6.771a27.732,27.732,0,0,1,45.349-19.095c1.03.854,4.5,6.393,4.5,6.393Z" transform="translate(0)"/>
      <polygon class="cls-3" points="309.967 167.742 368.781 207.804 367.929 223.147 361.962 273.437 354.291 266.618 309.967 167.742"/>
      <path class="cls-4" d="M290.074,118.484l117.34,258.385-23.25,11.939-142.3-248.14-2.177-6.927s-1.383-6.022-1.323-6.771a27.732,27.732,0,0,1,45.349-19.095c1.03.854,4.5,6.393,4.5,6.393Z" transform="translate(0)"/>
      <polygon class="cls-1" points="266.521 227.417 446.235 189.715 451.89 213.593 270.919 250.667 266.521 227.417"/>
      <polygon class="cls-4" points="266.521 227.417 446.235 189.715 451.89 213.593 270.919 250.667 266.521 227.417"/>
      <line class="cls-5" x1="292.513" y1="2.81" x2="68.529" y2="501.113"/>
      <line class="cls-5" x1="361.341" y1="17.098" x2="81.112" y2="503.629"/>
      <path class="cls-5" d="M17.946,307.5A296.638,296.638,0,0,0,262.313,435.679c104.072,0,195.641-53.535,248.67-134.568" transform="translate(0)"/>
      <path class="cls-6" d="M.578,334.918c57.45,77.445,153.347,128.176,261.945,128.176,111.559,0,209.714-53.535,266.557-134.568" transform="translate(0)"/>
      <line class="cls-6" x1="249.316" y1="232.75" x2="575.395" y2="158.524"/>
      <line class="cls-6" x1="251.833" y1="250.367" x2="578.371" y2="186.827"/>
      <line class="cls-5" x1="179.263" y1="25.46" x2="430.931" y2="478.462"/>
      <line class="cls-5" x1="234.63" y1="0.293" x2="451.064" y2="465.879"/>
      <path class="cls-1" d="M88.063,375.713S260.866,503.9,439.951,373.2l20.736,27.02s-177.829,138.87-390.219,1.257Z" transform="translate(0)"/>
      <path class="cls-4" d="M88.063,375.713S260.866,503.9,439.951,373.2l20.736,27.02s-177.829,138.87-390.219,1.257Z" transform="translate(0)"/>
      <path class="cls-1" d="M371.459,395.192l47.128-23.878,35.189,55.3s-33.3,22.621-59.067,29.533Z" transform="translate(0)"/>
      <path class="cls-4" d="M371.459,395.192l47.128-23.878,35.189,55.3s-33.3,22.621-59.067,29.533Z" transform="translate(0)"/>
      <line class="cls-5" x1="221.36" y1="279.334" x2="214.23" y2="296.909"/>
      <line class="cls-5" x1="229.285" y1="282.636" x2="224.002" y2="300.467"/>
      <line class="cls-5" x1="237.87" y1="285.277" x2="233.379" y2="303.964"/>
      <line class="cls-5" x1="247.116" y1="288.579" x2="244.465" y2="306.651"/>
      <line class="cls-5" x1="256.223" y1="291.198" x2="254.879" y2="307.995"/>
      <line class="cls-5" x1="266.214" y1="291.875" x2="265.629" y2="309.003"/>
      <line class="cls-5" x1="275.035" y1="292.206" x2="275.707" y2="308.331"/>
      <line class="cls-5" x1="292.84" y1="289.183" x2="296.535" y2="304.972"/>
      <line class="cls-5" x1="302.246" y1="286.495" x2="306.949" y2="301.948"/>
      <line class="cls-5" x1="284.441" y1="291.534" x2="286.793" y2="306.987"/>
    </g>
    <g>
      <path class="cls-3" d="M657.491,251.643v-78a12.7,12.7,0,0,1,12.7-12.7h0v79.649h59.564v11.048Z" transform="translate(0)"/>
      <path class="cls-3" d="M832.117,238.41c-6.223,6.552-19.94,15.673-42.419,15.673a86.858,86.858,0,0,1-13.716-1.157c-6.1-.9-24.258-4.24-34.672-21.2a47.206,47.206,0,0,1-6.477-24.409c0-10.406,2.667-20.811,9.017-28.906a37.643,37.643,0,0,1,6.477-6.551c6.1-5.139,18.416-13.1,38.609-13.1,4.064,0,16.256.385,27.814,5.782a49.272,49.272,0,0,1,19.177,15.93c7.367,10.791,7.874,22.738,7.874,27.106C843.8,212.845,843.04,226.977,832.117,238.41Zm-4.445-47.918c-9.652-20.94-35.18-20.813-40.26-20.684-3.81.129-19.94,1.028-30.353,11.563a31.511,31.511,0,0,0-7.493,12.2,42.339,42.339,0,0,0-2.032,13.232c0,3.341.381,13.1,6.477,21.454a30.822,30.822,0,0,0,7.113,6.809c5.207,3.726,13.97,7.837,28.829,7.837a57.819,57.819,0,0,0,15.113-1.8c12.573-3.341,21.718-11.819,24.765-24.666a48.076,48.076,0,0,0,1.143-10.149A36.984,36.984,0,0,0,827.672,190.492Z" transform="translate(0)"/>
      <path class="cls-3" d="M943.241,251.643l-70.233-75.025.254,75.025H861.07V174.026a13.081,13.081,0,0,1,13.081-13.081h0l69.725,74.9-.319-62.7a12.13,12.13,0,0,1,12.13-12.192h0v90.7Z" transform="translate(0)"/>
      <path class="cls-3" d="M1063.509,251.643V239.181a46.324,46.324,0,0,1-5.969,5.268c-5.08,3.6-16.764,9.25-33.148,9.25-24.13,0-37.085-12.591-42.546-20.17a46.252,46.252,0,0,1-8.764-27.492,46.9,46.9,0,0,1,7.367-25.309,39.084,39.084,0,0,1,5.842-7.065c6.1-5.782,19.177-14.9,40.387-14.9a64.3,64.3,0,0,1,29.973,7.066,39.613,39.613,0,0,1,12.066,9.121c2.032,2.184,2.921,3.212,5.334,7.708L1061.6,186.51a32.57,32.57,0,0,0-4.826-6.038c-4.318-3.982-13.97-10.663-29.211-10.663a54.026,54.026,0,0,0-17.145,2.827c-14.605,5.139-23.75,16.958-23.75,32.888,0,8.093,2.921,17.343,8.128,23.638,10.542,12.976,27.687,13.746,32.386,13.746,12.446,0,26.417-5.4,33.148-16.573,2.413-4.111,2.921-7.194,3.556-11.69h-39.5a10.791,10.791,0,0,1,10.791-10.791h39.376v47.789Z" transform="translate(0)"/>
      <path class="cls-3" d="M1093.985,251.643V173.9a12.954,12.954,0,0,1,12.954-12.954h0v90.7Z" transform="translate(0)"/>
      <path class="cls-3" d="M1168.788,171.736v79.907h-12.7V171.736H1119.51a10.791,10.791,0,0,1,10.791-10.791h75.191v10.791Z" transform="translate(0)"/>
      <path class="cls-3" d="M1307.726,232.5c-6.984,17.214-26.924,21.325-43.18,21.325-4.317,0-20.7.129-33.4-8.863a28.324,28.324,0,0,1-9.017-10.02c-3.556-6.681-3.811-13.361-3.811-20.684V173.773a12.828,12.828,0,0,1,12.828-12.828h0v53.828a47.481,47.481,0,0,0,.508,8.478c1.27,8.351,5.461,11.3,8.636,13.361,4.445,2.827,11.812,6.038,24.385,6.038,1.651,0,16.765,0,25.4-6.423a18.493,18.493,0,0,0,5.335-6.552c2.031-4.24,2.031-8.478,2.031-13.232V173.773a12.828,12.828,0,0,1,12.828-12.828h0v54.6C1310.267,221.581,1310.139,226.72,1307.726,232.5Z" transform="translate(0)"/>
      <path class="cls-3" d="M1410.85,240.852c-12.192,10.406-27.813,10.791-42.8,10.791h-35.815v-76.1a14.6,14.6,0,0,1,14.6-14.6h29.978c2.541,0,4.953,0,7.494.127a44.846,44.846,0,0,1,23.241,7.2c12.573,8.349,18.417,22.353,18.417,37.384C1425.964,218.755,1421.009,232.243,1410.85,240.852Zm-20.193-67.96c-4.319-1.156-9.4-1.284-13.844-1.284h-31.75v69.116h26.163c2.412,0,4.7-.129,6.984-.258,3.811-.127,14.859-.385,24-8.478,10.161-9.121,10.8-22.482,10.8-26.849C1412.881,190.234,1405.516,176.875,1390.657,172.891Z" transform="translate(0)"/>
      <path class="cls-3" d="M1443.36,251.643V175.42a14.475,14.475,0,0,1,14.475-14.475h68.2v11.176H1456.06V199.1h68.2V209.89h-68.2v30.575h73.281v11.177Z" transform="translate(0)"/>
    </g>
  </g>
</svg>
